# xmcd CD database file
#
# Track frame offsets:
#	225
#	15791
#	32882
#	53612
#	67949
#	84783
#
# Disc length: 1361 seconds
#
# Revision: 0
# Processed by: cddbd v1.5.2PL0 Copyright (c) Steve Scherf et al.
# Submitted via: CDex 1.51
#
DISCID=34054e06
DTITLE=Bayou Katz - Bayou Katz
DYEAR=2002
DGENRE=Country
TTITLE0=You Don't Belong With Me
TTITLE1=Bayou Blue
TTITLE2=Cry
TTITLE3=Louisiana Lady
TTITLE4=Born To Ride
TTITLE5=I'll Catch You On the Way
EXTD=YEAR: 2002
EXTT0=
EXTT1=
EXTT2=
EXTT3=
EXTT4=
EXTT5=
PLAYORDER=
